<?xml version="1.0" encoding="utf-8"?>
<svg version="1.1" xmlns="http://www.w3.org/2000/svg" xmlns:xlink="http://www.w3.org/1999/xlink" x="0px" y="0px"
	 viewBox="0 0 1000 812.3" style="enable-background:new 0 0 1000 812.3;" xml:space="preserve">
<style type="text/css">
	.st0{fill-rule:evenodd;clip-rule:evenodd;fill:#EDEDF2;}
</style>
<path class="st0" d="M992.6,467.9l-37,16l-59.3,13.6l-69.1,2.5l-54.6-10.6l-24.7-25l-1.3-25.8l0,0l97.8-75.5l12.3-18.5l5.9-34.5
	l-10.8,19.7l-23.5,25.9l-87.7,54.3l-13.4,19l-13.7,20.5l8.7,26.3l8.6,20.6l38.3,13l45.7,10.4l43.2-1.2l53.1-9.9l43.2-12.3l45.7-22.2
	 M817.3,259.3l-108.6,49.4l-103.7,76.5l-50.1-1.5l16-11.8l66.2-76.8l29.6-74.1l-54.3,77.8l-90.1,84l-142.5-8l-129.1,8l244.8,17.9
	l-59.4,42l-47.7,21l-116.6,10.8l-42.8-36.9l0.8-61l43.2-79l-8.6-6.2l-58,82.7l-4.9,55.6l16,37l46.9,29.6l112.3-4.9l88.9-38.3
	l75.3-53.1l41.2,2.9L411.7,612.1l-68.3,132.8l8.4,67.5l9.8-65.4l24-43.3l55.9-96.2l58-65.6l109.1-138.4l12.4-2.5l108.6-18.3
	l-72.8,2.5l-20.8-1L817.3,259.3z M455.6,0L340.7,148.1L206.2,265.4l-16,11.4l54.3-204l-7.4-6.2l-39.5,84L158,298.8L42,370.4l8.6,6.2
	l87.7-44.4l12.6-5.3L90.1,596.3l-35.8,75.3L0,739.5l63-53.1l48.1-80.2l44.4-133.3l30.9-166.7l111.1-82.7l69.1-66.7L421,84L455.6,0z"
	/>
</svg>
